<svg xmlns="http://www.w3.org/2000/svg" width="207.352" height="45.15" viewBox="0 0 207.352 45.15">
  <g id="组_406" data-name="组 406" transform="translate(0 0)">
    <path id="路径_121" data-name="路径 121" d="M69.2,31.752a6.5,6.5,0,0,1,1.969-4.738,6.634,6.634,0,0,1,4.772-1.969v25.7A6.722,6.722,0,0,1,69.2,57.48Z" transform="translate(-34.07 -12.33)" fill="#345159"/>
    <path id="路径_122" data-name="路径 122" d="M69.1,8.976S67.7,1.065,75.837,0c0,0,1.49,8.362-6.741,8.977" transform="translate(-33.975 0.001)" fill="#345159"/>
    <path id="路径_123" data-name="路径 123" d="M238.533,31.663a6.5,6.5,0,0,1,1.969-4.738,6.634,6.634,0,0,1,4.772-1.969v25.7a6.722,6.722,0,0,1-6.741,6.741Z" transform="translate(-117.442 -12.286)" fill="#345159"/>
    <path id="路径_124" data-name="路径 124" d="M238.622,9.167S237.23,1.256,245.363.19c0,0,1.49,8.362-6.741,8.977" transform="translate(-117.442 -0.093)" fill="#345159"/>
    <path id="路径_125" data-name="路径 125" d="M126.377,54.39V34.8a15.286,15.286,0,0,0-2.149-7.987,16.384,16.384,0,0,0-5.748-5.748,15.831,15.831,0,0,0-15.929,0A16.38,16.38,0,0,0,96.8,26.808,15.281,15.281,0,0,0,94.654,34.8V54.39h7.241V34.8a8.621,8.621,0,1,1,17.242,0V54.39Z" transform="translate(-46.603 -9.31)" fill="#345159"/>
    <path id="路径_126" data-name="路径 126" d="M366.762.478V9.791H356.24A17.762,17.762,0,1,0,374,27.553V.478Zm0,27.03a10.546,10.546,0,0,1-10.544,10.544,10.507,10.507,0,0,1-10.5-10.5A10.544,10.544,0,0,1,356.263,17.01h10.5Z" transform="translate(-166.651 -0.235)" fill="#345159"/>
    <path id="路径_127" data-name="路径 127" d="M295.622,54.39V34.8a15.281,15.281,0,0,0-2.149-7.987,16.381,16.381,0,0,0-5.748-5.748,15.83,15.83,0,0,0-15.928,0,16.382,16.382,0,0,0-5.748,5.748A15.281,15.281,0,0,0,263.9,34.8V54.39h7.241V34.8a8.621,8.621,0,1,1,17.241,0V54.39Z" transform="translate(-129.932 -9.31)" fill="#345159"/>
    <path id="路径_128" data-name="路径 128" d="M197.072,55.236s-8.2-11.048-9.2-12.4a5.869,5.869,0,0,0-2.226-1.846,5.246,5.246,0,0,0,1.964-1.5L198,25.427h7.533l-11.48,15.525L206.356,57.6h-7.529Z" transform="translate(-91.402 -12.518)" fill="#345159"/>
    <rect id="矩形_166" data-name="矩形 166" width="6.684" height="44.896" transform="translate(85.911 0.184)" fill="#345159"/>
    <path id="路径_129" data-name="路径 129" d="M6.978,18.71S7.156,38.438,29.02,38.438v6.947C-.851,45.522,0,19.3,0,19.3V.478H6.978Z" transform="translate(0 -0.235)" fill="#345159"/>
  </g>
</svg>
