<svg xmlns="http://www.w3.org/2000/svg" width="65" height="65" viewBox="0 0 65 65">
  <g id="组_415" data-name="组 415" transform="translate(-693 -503)">
    <g id="组_393" data-name="组 393" transform="translate(25 -370)">
      <g id="椭圆_21" data-name="椭圆 21" transform="translate(668 873)" fill="none" stroke="#fff" stroke-width="2">
        <circle cx="32.5" cy="32.5" r="32.5" stroke="none"/>
        <circle cx="32.5" cy="32.5" r="31.5" fill="none"/>
      </g>
      <path id="icons8-handle_with_care" d="M17.177,1.893,10.662,4.987a1.518,1.518,0,0,0-.424.2L9.589,5.5v.708a1.518,1.518,0,0,0,0,.468v6.771l7.589,3.984,7.589-3.984V6.653a1.517,1.517,0,0,0,0-.406V5.5l-.676-.32a1.518,1.518,0,0,0-.362-.172Zm0,3.362,2.742,1.3L17.177,8.064,14.435,6.555ZM3.518,8.127A1.518,1.518,0,0,0,2,9.644v9.842a3.047,3.047,0,0,0,.889,2.149l5.182,5.182v4.076H15.66l0-5.182a6.061,6.061,0,0,0-1.776-4.292L7.443,14.725a3.035,3.035,0,0,0,0,4.292l2.7,2.8a.759.759,0,0,1-1.073,1.073L5.03,18.774c0-.009.006-.015.006-.024V9.644A1.518,1.518,0,0,0,3.518,8.127Zm27.319,0a1.518,1.518,0,0,0-1.518,1.518v9.106c0,.009.006.015.006.024l-4.037,4.117a.759.759,0,0,1-1.073-1.073l2.7-2.8a3.035,3.035,0,0,0,0-4.292l-6.439,6.693A6.061,6.061,0,0,0,18.7,25.711l0,5.182h7.589V26.817l5.182-5.182a3.047,3.047,0,0,0,.889-2.149V9.644A1.518,1.518,0,0,0,30.837,8.127Zm-18.213.9,4.553,2.5,4.553-2.5V11.61L17.177,14,12.624,11.61Z" transform="translate(683.322 889.107)" fill="#fff"/>
    </g>
  </g>
</svg>
