<svg xmlns="http://www.w3.org/2000/svg" width="65" height="65" viewBox="0 0 65 65">
  <g id="组_414" data-name="组 414" transform="translate(-431 -503)">
    <g id="组_412" data-name="组 412" transform="translate(298 -135)">
      <g id="椭圆_22" data-name="椭圆 22" transform="translate(133 638)" fill="none" stroke="#fff" stroke-width="2">
        <circle cx="32.5" cy="32.5" r="32.5" stroke="none"/>
        <circle cx="32.5" cy="32.5" r="31.5" fill="none"/>
      </g>
      <path id="icons8-organization_chart_people" d="M14.4,1a4.373,4.373,0,0,0-2.311,8.091,3.668,3.668,0,0,0-2.071,3.176,1.252,1.252,0,0,0,2.5,0c0-.667.878-1.252,1.878-1.252s1.878.585,1.878,1.252a1.252,1.252,0,0,0,2.5,0,3.668,3.668,0,0,0-2.071-3.176A4.373,4.373,0,0,0,14.4,1Zm0,2.5a1.878,1.878,0,1,1-1.878,1.878A1.88,1.88,0,0,1,14.4,3.5ZM3.756,6.008A1.252,1.252,0,0,0,2.5,7.259v5.008a1.252,1.252,0,0,0,2.5,0V8.511h2.5a1.252,1.252,0,0,0,0-2.5Zm17.526,0a1.252,1.252,0,1,0,0,2.5h2.5v3.756a1.252,1.252,0,1,0,2.5,0V7.259a1.252,1.252,0,0,0-1.252-1.252ZM4.382,16.023a4.373,4.373,0,0,0-2.311,8.091A3.668,3.668,0,0,0,0,27.29a1.252,1.252,0,1,0,2.5,0c0-.666.878-1.252,1.878-1.252s1.878.586,1.878,1.252a1.252,1.252,0,1,0,2.5,0,3.668,3.668,0,0,0-2.071-3.176,4.373,4.373,0,0,0-2.311-8.091Zm10.015,0a4.373,4.373,0,0,0-2.311,8.091,3.668,3.668,0,0,0-2.071,3.176,1.252,1.252,0,1,0,2.5,0c0-.666.878-1.252,1.878-1.252s1.878.586,1.878,1.252a1.252,1.252,0,1,0,2.5,0,3.668,3.668,0,0,0-2.071-3.176A4.373,4.373,0,0,0,14.4,16.023Zm10.015,0A4.373,4.373,0,0,0,22.1,24.113,3.668,3.668,0,0,0,20.03,27.29a1.252,1.252,0,1,0,2.5,0c0-.666.878-1.252,1.878-1.252s1.878.586,1.878,1.252a1.252,1.252,0,1,0,2.5,0,3.668,3.668,0,0,0-2.071-3.176,4.373,4.373,0,0,0-2.311-8.091Zm-20.03,2.5A1.878,1.878,0,1,1,2.5,20.4,1.88,1.88,0,0,1,4.382,18.526Zm10.015,0A1.878,1.878,0,1,1,12.519,20.4,1.88,1.88,0,0,1,14.4,18.526Zm10.015,0A1.878,1.878,0,1,1,22.534,20.4,1.88,1.88,0,0,1,24.412,18.526Z" transform="translate(151.885 655.729)" fill="#fff"/>
    </g>
  </g>
</svg>
