<svg xmlns="http://www.w3.org/2000/svg" width="65" height="65" viewBox="0 0 65 65">
  <g id="组_417" data-name="组 417" transform="translate(-269 -665)">
    <g id="椭圆_20" data-name="椭圆 20" transform="translate(269 665)" fill="none" stroke="#fff" stroke-width="2">
      <circle cx="32.5" cy="32.5" r="32.5" stroke="none"/>
      <circle cx="32.5" cy="32.5" r="31.5" fill="none"/>
    </g>
    <path id="icons8-coupon" d="M5.778,2A3.741,3.741,0,0,0,2,5.778,3.741,3.741,0,0,0,5.778,9.555a4.413,4.413,0,0,0,1.36-.3L8.95,11.066,7.138,12.878a4.413,4.413,0,0,0-1.36-.3,3.778,3.778,0,0,0,0,7.555,3.741,3.741,0,0,0,3.778-3.778,5.366,5.366,0,0,0-.3-1.511l1.662-1.662,5.138,5.439h4.079L9.254,7.289a5.366,5.366,0,0,0,.3-1.511A3.741,3.741,0,0,0,5.778,2ZM16.054,3.511,11.972,7.894l1.965,2.116,6.195-6.5ZM5.778,4.267A1.625,1.625,0,0,1,7.289,5.778,1.625,1.625,0,0,1,5.778,7.289,1.625,1.625,0,0,1,4.267,5.778,1.625,1.625,0,0,1,5.778,4.267ZM18.621,9.555v3.022h3.022V9.555Zm6.044,0v3.022h3.022V15.6h3.022V12.577a3.021,3.021,0,0,0-3.022-3.022ZM10.774,10.594a.472.472,0,1,1-.472.472A.471.471,0,0,1,10.774,10.594Zm-5,4.25a1.625,1.625,0,0,1,1.511,1.511,1.625,1.625,0,0,1-1.511,1.511,1.625,1.625,0,0,1-1.511-1.511A1.625,1.625,0,0,1,5.778,14.844Zm21.91,3.778v3.022h3.022V18.621ZM3.511,24.665v3.022a3.021,3.021,0,0,0,3.022,3.022H9.555V27.687H6.533V24.665Zm24.176,0v3.022H24.665v3.022h3.022a3.021,3.021,0,0,0,3.022-3.022V24.665Zm-15.11,3.022v3.022H15.6V27.687Zm6.044,0v3.022h3.022V27.687Z" transform="translate(285 680)" fill="#fff"/>
  </g>
</svg>
