<svg xmlns="http://www.w3.org/2000/svg" width="65" height="65" viewBox="0 0 65 65">
  <g id="组_416" data-name="组 416" transform="translate(-589 -664)">
    <g id="组_411" data-name="组 411" transform="translate(386 12)">
      <path id="icons8-money" d="M3.642,3A1.643,1.643,0,0,0,2,4.642V21.063a1.643,1.643,0,0,0,1.642,1.642H33.2a1.643,1.643,0,0,0,1.642-1.642V4.642A1.643,1.643,0,0,0,33.2,3Zm3.14,3.284H30.06a2.463,2.463,0,0,0,1.5,1.5V17.923a2.463,2.463,0,0,0-1.5,1.5H6.782a2.463,2.463,0,0,0-1.5-1.5V7.782A2.463,2.463,0,0,0,6.782,6.284ZM18.421,7.926a4.926,4.926,0,1,0,4.926,4.926,4.926,4.926,0,0,0-4.926-4.926ZM10.21,11.21a1.642,1.642,0,1,0,1.642,1.642A1.642,1.642,0,0,0,10.21,11.21Zm16.421,0a1.642,1.642,0,1,0,1.642,1.642A1.642,1.642,0,0,0,26.631,11.21ZM5.268,25.989l25.023,6.517a1.642,1.642,0,0,0,2-1.177l1.392-5.34H30.291L29.9,27.468a2.455,2.455,0,0,0-1.818,1.068L18.3,25.989Z" transform="translate(217.078 669.029)" fill="#fff"/>
      <g id="椭圆_17" data-name="椭圆 17" transform="translate(203 652)" fill="none" stroke="#fff" stroke-width="2">
        <circle cx="32.5" cy="32.5" r="32.5" stroke="none"/>
        <circle cx="32.5" cy="32.5" r="31.5" fill="none"/>
      </g>
    </g>
  </g>
</svg>
