<svg xmlns="http://www.w3.org/2000/svg" width="65" height="65" viewBox="0 0 65 65">
  <g id="组_413" data-name="组 413" transform="translate(-145 -503)">
    <g id="组_394" data-name="组 394" transform="translate(-591 -159)">
      <g id="椭圆_19" data-name="椭圆 19" transform="translate(736 662)" fill="none" stroke="#fff" stroke-width="2">
        <circle cx="32.5" cy="32.5" r="32.5" stroke="none"/>
        <circle cx="32.5" cy="32.5" r="31.5" fill="none"/>
      </g>
      <path id="icons8-calendar_30" d="M7.267,1V3.844H5.844A2.853,2.853,0,0,0,3,6.689V26.6a2.853,2.853,0,0,0,2.844,2.844H25.756A2.853,2.853,0,0,0,28.6,26.6V6.689a2.853,2.853,0,0,0-2.844-2.844H24.333V1H21.489V3.844H10.111V1ZM5.844,6.689H25.756V9.533H5.844Zm0,5.689H25.756V26.6H5.844ZM7.267,13.8v2.844H9.539l-.85.814V19.25l.989.317a3.918,3.918,0,0,1,.994.547,1.793,1.793,0,0,1,.861,1.508.711.711,0,0,1-1.422,0v-.711H7.267v.711a3.556,3.556,0,1,0,7.111,0,4.792,4.792,0,0,0-1.983-3.772l1.983-1.9V13.8Zm12.8,0A4.288,4.288,0,0,0,15.8,18.067v2.844a4.267,4.267,0,1,0,8.533,0V18.067A4.288,4.288,0,0,0,20.067,13.8Zm0,2.844a1.4,1.4,0,0,1,1.422,1.422v2.844a1.422,1.422,0,1,1-2.844,0V18.067A1.4,1.4,0,0,1,20.067,16.644Z" transform="translate(752.699 679.278)" fill="#fff"/>
    </g>
  </g>
</svg>
